<?xml version="1.0" encoding="UTF-8" standalone="no"?>
<!-- Created with Inkscape (http://www.inkscape.org/) -->

<svg
   width="180mm"
   height="60mm"
   viewBox="0 0 180 60"
   version="1.1"
   id="svg8"
   inkscape:version="1.1.2 (0a00cf5339, 2022-02-04)"
   sodipodi:docname="Logo_OpenShake.svg"
   xmlns:inkscape="http://www.inkscape.org/namespaces/inkscape"
   xmlns:sodipodi="http://sodipodi.sourceforge.net/DTD/sodipodi-0.dtd"
   xmlns="http://www.w3.org/2000/svg"
   xmlns:svg="http://www.w3.org/2000/svg"
   xmlns:rdf="http://www.w3.org/1999/02/22-rdf-syntax-ns#"
   xmlns:cc="http://creativecommons.org/ns#"
   xmlns:dc="http://purl.org/dc/elements/1.1/">
  <defs
     id="defs2" />
  <sodipodi:namedview
     id="base"
     pagecolor="#ffffff"
     bordercolor="#666666"
     borderopacity="1.0"
     inkscape:pageopacity="0.0"
     inkscape:pageshadow="2"
     inkscape:zoom="0.65240791"
     inkscape:cx="416.91708"
     inkscape:cy="282.03214"
     inkscape:document-units="mm"
     inkscape:current-layer="layer3"
     showgrid="false"
     inkscape:window-width="1879"
     inkscape:window-height="1062"
     inkscape:window-x="1321"
     inkscape:window-y="18"
     inkscape:window-maximized="1"
     inkscape:pagecheckerboard="0"
     height="296mm">
    <inkscape:grid
       type="xygrid"
       id="grid893" />
  </sodipodi:namedview>
  <metadata
     id="metadata5">
    <rdf:RDF>
      <cc:Work
         rdf:about="">
        <dc:format>image/svg+xml</dc:format>
        <dc:type
           rdf:resource="http://purl.org/dc/dcmitype/StillImage" />
      </cc:Work>
    </rdf:RDF>
  </metadata>
  <g
     inkscape:label="Wave"
     inkscape:groupmode="layer"
     id="layer1"
     style="display:inline">
    <path
       style="fill:#000000;stroke-width:0.0739564"
       d="m 135.01635,56.611006 c -0.60125,-0.25857 -1.03611,-0.74446 -1.25631,-1.40376 -0.0696,-0.20852 -0.49712,-2.88139 -0.94994,-5.93971 -0.45282,-3.05832 -1.24505,-8.40405 -1.76049,-11.87941 -0.51545,-3.47537 -1.02351,-6.90237 -1.12904,-7.61557 -0.10552,-0.7132 -0.20252,-1.31057 -0.21556,-1.32748 -0.013,-0.0169 -0.55967,1.41965 -1.21475,3.19237 -0.65508,1.77273 -1.2758,3.38643 -1.37939,3.586 -0.10358,0.19957 -0.30741,0.47482 -0.45297,0.61165 -0.53409,0.5021 -0.51121,0.49989 -5.1566,0.49989 l -95.171627,-0.0436 v -2.56893 -2.56893 l 94.419717,0.0218 3.48853,-0.0218 2.30554,-6.20208 c 1.26804,-3.41114 2.38919,-6.33966 2.49143,-6.50783 0.10926,-0.1797 0.36144,-0.41791 0.61171,-0.5778 0.78691,-0.50276 1.68099,-0.31972 2.27315,0.46536 0.44685,0.59242 0.4949,0.79842 1.01587,4.35511 0.12557,0.85725 0.59051,4.00403 1.0332,6.99284 0.44269,2.98881 0.90086,6.08822 1.01816,6.88757 0.11729,0.79935 0.2266,1.43605 0.2429,1.4149 0.0163,-0.0212 0.11192,-0.88369 0.21248,-1.91674 0.10057,-1.03306 0.31508,-3.2242 0.47668,-4.86921 0.16161,-1.645 0.44268,-4.50743 0.6246,-6.36096 0.18193,-1.85353 0.47593,-4.84865 0.65333,-6.65584 0.1774,-1.80719 0.51126,-5.21936 0.74189,-7.58261 0.70985,-7.2734004 0.71271,-7.2988904 0.86252,-7.6781804 0.19241,-0.48713 0.50309,-0.86451 0.92124,-1.119 0.49373,-0.3005 1.25718,-0.30852 1.68831,-0.0177 0.39861,0.26885 0.75834,0.73011 0.95143,1.21994 0.15741,0.39934 0.72265,4.66129 3.6359,27.4150604 0.2032,1.58708 0.38621,2.8845 0.40669,2.88315 0.0205,-10e-4 0.32677,-0.90179 0.68062,-2.00097 1.55668,-4.83543 1.86304,-5.72798 2.07792,-6.05378 0.64228,-0.97379 1.86612,-1.14493 2.67319,-0.3738 0.55327,0.52863 0.41225,0.0536 3.35945,11.31592 0.46979,1.79523 0.87413,3.26436 0.89854,3.26473 0.0244,3.4e-4 0.25561,-0.52061 0.51377,-1.15776 1.68128,-4.14938 2.49852,-6.08117 2.67751,-6.32908 0.11279,-0.15623 0.38036,-0.39316 0.59459,-0.52651 l 0.38952,-0.24244 5.11242,-7e-5 5.11241,-6e-5 v 2.56966 2.56966 h -4.2791 -4.2791 l -0.22368,0.52657 c -0.12301,0.28961 -0.40882,0.98152 -0.63512,1.53758 -2.54513,6.25389 -3.72481,9.0733 -3.91939,9.36727 -0.27948,0.42224 -0.80156,0.76151 -1.28541,0.83531 -0.66302,0.10113 -1.38572,-0.32741 -1.79811,-1.0662 -0.10476,-0.1877 -0.32094,-0.84156 -0.48038,-1.45303 -0.15944,-0.61147 -0.675,-2.57141 -1.14568,-4.35543 -0.47069,-1.78402 -1.05554,-4.00193 -1.29967,-4.92869 -0.6504,-2.46901 -0.66096,-2.50496 -0.71373,-2.42888 -0.0266,0.0384 -0.73092,2.17402 -1.56505,4.74579 -1.46443,4.51511 -1.52787,4.6907 -1.84461,5.1053 -0.80198,1.04977 -1.97626,1.05572 -2.80339,0.0142 -0.38039,-0.47899 -0.51745,-0.95953 -0.69627,-2.44131 -0.52013,-4.30986 -2.57684,-20.62444 -2.6265,-20.83433 -0.0362,-0.15324 -0.0624,-0.1917 -0.0664,-0.0977 -0.006,0.13715 -0.17461,1.86353 -0.91954,9.40745 -0.10753,1.08895 -0.34025,3.45851 -0.51716,5.2657 -0.17691,1.80718 -0.48178,4.91605 -0.67749,6.90859 -0.1957,1.99254 -0.43029,4.38106 -0.5213,5.30783 -0.091,0.92676 -0.28142,2.86199 -0.42314,4.30052 -0.14172,1.43853 -0.30396,2.79181 -0.36054,3.00731 -0.1396,0.53173 -0.54331,1.1031 -0.97149,1.37497 -0.42173,0.26778 -1.03768,0.3443 -1.42627,0.17719 z"
       id="path868"
       inkscape:connector-curvature="0"
       sodipodi:nodetypes="ccsccccccsccccccccccscccccscccccscccccccccccccccccccccscccscccccssccscccc" />
    <rect
       style="opacity:1;fill:#000000;fill-opacity:1;stroke-width:0.578674"
       id="rect891"
       width="17.890152"
       height="5.1396232"
       x="3.8525071"
       y="31.153528" />
  </g>
  <g
     inkscape:groupmode="layer"
     id="layer3"
     inkscape:label="Tekst"
     style="display:inline">
    <g
       aria-label="OpenShake"
       transform="matrix(0.26458333,0,0,0.26458333,-37.158923,-39.206842)"
       style="font-style:normal;font-variant:normal;font-weight:normal;font-stretch:normal;font-size:40px;line-height:1.25;font-family:Bauhaus;-inkscape-font-specification:Bauhaus;letter-spacing:0px;word-spacing:0px;fill:#000000;fill-opacity:1;stroke:none"
       id="flowRoot826">
      <path
         d="m 188.22827,195.33582 q 14.016,0 23.616,9.696 9.696,9.6 9.696,23.808 0,13.44 -9.792,23.232 -9.792,9.792 -23.328,9.792 -13.824,0 -23.52,-9.696 -9.696,-9.696 -9.696,-23.52 0,-13.824 9.6,-23.52 9.696,-9.792 23.424,-9.792 z m 0.192,7.776 q -10.08,0 -17.28,7.488 -7.104,7.392 -7.104,17.76 0,10.752 7.104,18.24 7.104,7.488 17.28,7.488 9.888,0 17.088,-7.488 7.2,-7.488 7.2,-17.856 0,-10.752 -7.104,-18.144 -7.008,-7.488 -17.184,-7.488 z"
         style="font-style:normal;font-variant:normal;font-weight:normal;font-stretch:normal;font-size:96px;font-family:Bauhaus;-inkscape-font-specification:Bauhaus"
         id="path904"
         inkscape:connector-curvature="0" />
      <path
         d="m 227.49212,285.36203 v -44.81021 c 0,-7.168 2.112,-13.024 6.336,-17.568 4.224,-4.544 9.696,-6.816 16.416,-6.816 6.464,0 11.872,2.24 16.224,6.72 4.416,4.416 6.624,9.856 6.624,16.32 0,6.08 -2.176,11.328 -6.528,15.744 -4.352,4.416 -9.536,6.624 -15.552,6.624 -4.48,0 -8.704,-1.568 -12.672,-4.704 v -8.352 c 2.24,1.984 4.256,3.392 6.048,4.224 1.792,0.832 3.776,1.248 5.952,1.248 4.224,0 7.744,-1.44 10.56,-4.32 2.816,-2.88 4.224,-6.496 4.224,-10.848 0,-4.16 -1.408,-7.712 -4.224,-10.656 -2.816,-2.944 -6.24,-4.416 -10.272,-4.416 -2.56,0 -4.928,0.576 -7.104,1.728 -2.176,1.088 -4.128,2.88 -5.856,5.376 -1.664,2.496 -2.496,6.272 -2.496,11.328 v 43.17821 z"
         style="font-style:normal;font-variant:normal;font-weight:normal;font-stretch:normal;font-size:96px;font-family:Bauhaus;-inkscape-font-specification:Bauhaus"
         id="path906"
         inkscape:connector-curvature="0"
         sodipodi:nodetypes="cssscsssccssssssccscc" />
      <path
         d="m 316.292,240.45582 5.376,2.976 q -5.28,18.048 -22.56,18.048 -9.408,0 -16.128,-6.528 -6.624,-6.624 -6.624,-16.128 0,-9.6 6.528,-16.128 6.528,-6.528 16.224,-6.528 12.864,0 20.16,12.96 l -27.936,18.24 -3.264,-5.664 21.216,-14.208 q -3.648,-4.416 -10.176,-4.416 -6.336,0 -10.56,4.32 -4.224,4.32 -4.224,10.944 0,6.624 4.608,11.424 4.608,4.8 11.04,4.8 6.048,0 10.272,-3.648 4.224,-3.648 6.048,-10.464 z"
         style="font-style:normal;font-variant:normal;font-weight:normal;font-stretch:normal;font-size:96px;font-family:Bauhaus;-inkscape-font-specification:Bauhaus"
         id="path908"
         inkscape:connector-curvature="0" />
      <path
         d="m 365.15597,260.61582 h -7.68 v -22.848 q 0,-6.72 -2.88,-10.368 -2.88,-3.648 -8.256,-3.648 -11.232,0 -11.232,14.4 v 22.464 h -7.68 v -24.576 q 0,-8.928 5.184,-14.4 5.184,-5.472 13.824,-5.472 8.448,0 13.536,5.472 5.184,5.376 5.184,14.304 z"
         style="font-style:normal;font-variant:normal;font-weight:normal;font-stretch:normal;font-size:96px;font-family:Bauhaus;-inkscape-font-specification:Bauhaus"
         id="path910"
         inkscape:connector-curvature="0" />
      <path
         d="m 373.21995,260.61582 v -7.392 h 20.064 q 13.536,0 13.536,-9.12 0,-5.856 -7.2,-9.312 l -16.032,-7.584 q -10.56,-4.992 -10.56,-14.88 0,-15.744 19.872,-15.744 h 19.488 v 7.392 h -17.184 q -4.608,0 -6.72,0.384 -2.112,0.384 -4.416,2.208 -2.208,1.824 -2.208,5.856 0,3.072 1.44,4.896 1.44,1.824 5.184,3.552 l 16.896,7.776 q 10.272,4.8 10.272,15.36 0,16.608 -19.968,16.608 z"
         style="font-style:normal;font-variant:normal;font-weight:normal;font-stretch:normal;font-size:96px;font-family:Bauhaus;-inkscape-font-specification:Bauhaus"
         id="path912"
         inkscape:connector-curvature="0" />
      <path
         d="m 462.97987,260.61582 h -7.68 v -23.616 q 0,-13.344 -10.56,-13.344 -5.376,0 -8.544,4.032 -3.168,4.032 -3.168,11.04 v 21.888 h -7.68 v -64.032 h 7.68 v 26.976 q 4.608,-7.488 13.728,-7.488 7.392,0 11.808,5.184 4.416,5.184 4.416,13.92 z"
         style="font-style:normal;font-variant:normal;font-weight:normal;font-stretch:normal;font-size:96px;font-family:Bauhaus;-inkscape-font-specification:Bauhaus"
         id="path914"
         inkscape:connector-curvature="0" />
      <path
         d="m 514.43574,260.61582 h -7.68 v -19.104 q 0,-8.064 -4.128,-12.864 -4.032,-4.896 -10.944,-4.896 -6.24,0 -10.56,4.416 -4.32,4.416 -4.32,10.752 0,6.336 4.32,10.656 4.32,4.32 10.752,4.32 5.76,0 11.712,-5.28 v 8.16 q -3.072,2.592 -5.952,3.648 -2.88,1.056 -6.72,1.056 -9.216,0 -15.648,-6.528 -6.432,-6.528 -6.432,-16.032 0,-9.408 6.624,-16.032 6.72,-6.72 16.32,-6.72 9.792,0 16.224,6.72 6.432,6.72 6.432,17.088 z"
         style="font-style:normal;font-variant:normal;font-weight:normal;font-stretch:normal;font-size:96px;font-family:Bauhaus;-inkscape-font-specification:Bauhaus"
         id="path916"
         inkscape:connector-curvature="0" />
      <path
         d="m 558.97967,260.61582 h -7.68 v -9.408 q 0,-5.952 -2.688,-8.352 -2.592,-2.496 -8.928,-2.496 h -7.296 v 20.256 h -7.68 v -64.032 h 7.68 v 37.056 h 4.032 q 3.648,0 5.28,-1.056 1.728,-1.056 3.936,-4.896 l 6.24,-10.656 h 8.448 l -7.2,12 q -2.208,3.648 -3.072,4.608 -0.768,0.864 -2.88,1.92 11.808,2.688 11.808,15.36 z"
         style="font-style:normal;font-variant:normal;font-weight:normal;font-stretch:normal;font-size:96px;font-family:Bauhaus;-inkscape-font-specification:Bauhaus"
         id="path918"
         inkscape:connector-curvature="0" />
      <path
         d="m 604.48353,240.45582 5.376,2.976 q -5.28,18.048 -22.56,18.048 -9.408,0 -16.128,-6.528 -6.624,-6.624 -6.624,-16.128 0,-9.6 6.528,-16.128 6.528,-6.528 16.224,-6.528 12.864,0 20.16,12.96 l -27.936,18.24 -3.264,-5.664 21.216,-14.208 q -3.648,-4.416 -10.176,-4.416 -6.336,0 -10.56,4.32 -4.224,4.32 -4.224,10.944 0,6.624 4.608,11.424 4.608,4.8 11.04,4.8 6.048,0 10.272,-3.648 4.224,-3.648 6.048,-10.464 z"
         style="font-style:normal;font-variant:normal;font-weight:normal;font-stretch:normal;font-size:96px;font-family:Bauhaus;-inkscape-font-specification:Bauhaus"
         id="path920"
         inkscape:connector-curvature="0" />
    </g>
  </g>
  <g
     inkscape:groupmode="layer"
     id="layer2"
     inkscape:label="Krogi"
     style="display:inline">
    <path
       style="fill:#000000;stroke-width:0.028462"
       d="m 12.31378,27.58137 c -0.109672,-0.01393 -0.275664,-0.04513 -0.36887,-0.06941 -0.09321,-0.02427 -0.203286,-0.04413 -0.244621,-0.04413 -0.04134,0 -0.208349,-0.03892 -0.371142,-0.0865 -0.386089,-0.112839 -0.673673,-0.191601 -0.779431,-0.213463 -0.10755,-0.0222 -0.493021,-0.181815 -0.8279438,-0.342769 -0.410157,-0.19711 -0.733985,-0.456921 -1.402918,-1.125567 -0.641987,-0.641717 -0.904245,-0.970901 -1.108183,-1.390977 -0.226494,-0.466538 -0.29001,-0.650303 -0.501707,-1.451561 -0.237137,-0.897544 -0.290634,-1.287341 -0.244445,-1.781107 0.04531,-0.484415 0.0741,-0.665399 0.139305,-0.875972 0.03323,-0.107314 0.06042,-0.221862 0.06042,-0.25455 0,-0.06031 0.07974,-0.338494 0.230095,-0.802732 0.04564,-0.140925 0.08299,-0.274233 0.08299,-0.29624 0,-0.02201 0.0536,-0.156457 0.119108,-0.29878 0.127247,-0.276453 0.314579,-0.573132 0.547897,-0.86771 0.187247,-0.236408 1.206654,-1.256481 1.439383,-1.440323 0.237615,-0.187699 0.654468,-0.469622 0.694389,-0.469622 0.0174,0 0.09558,-0.03431 0.173727,-0.07624 0.07815,-0.04193 0.2445468,-0.105216 0.3697798,-0.140636 0.125232,-0.03542 0.285331,-0.08352 0.355774,-0.106895 0.288709,-0.09579 0.618564,-0.188548 0.670466,-0.188542 0.03042,4e-6 0.164182,-0.03061 0.297242,-0.06804 0.465086,-0.13082 1.308682,-0.183759 1.665026,-0.104488 0.07827,0.01741 0.225562,0.04528 0.327314,0.06193 0.101751,0.01666 0.281062,0.06001 0.398467,0.09636 0.117406,0.03635 0.258293,0.07465 0.313082,0.08513 0.09699,0.01855 0.323084,0.08007 0.611933,0.166528 0.362054,0.108367 0.909966,0.36599 1.181173,0.555377 0.457011,0.319136 1.449219,1.307447 1.829486,1.8223 0.208129,0.28179 0.563835,1.054214 0.618701,1.34352 0.01505,0.07937 0.03418,0.155328 0.0425,0.168797 0.01441,0.02331 0.104719,0.356224 0.196775,0.725351 0.142069,0.56967 0.19858,1.012602 0.172486,1.351945 -0.02972,0.386426 -0.09421,0.796679 -0.155891,0.99159 -0.0314,0.09923 -0.0571,0.207376 -0.0571,0.240319 0,0.056 -0.09131,0.382607 -0.188716,0.675045 -0.02347,0.07044 -0.06698,0.215085 -0.09671,0.321428 -0.11184,0.400133 -0.344159,0.823621 -0.69986,1.275754 -0.180051,0.228865 -1.201813,1.250626 -1.430677,1.430679 -0.450803,0.354652 -0.850735,0.574039 -1.269869,0.696604 -0.109579,0.03205 -0.25687,0.07724 -0.327313,0.10044 -0.305737,0.100692 -0.61968,0.188235 -0.675045,0.188235 -0.03294,0 -0.141086,0.02567 -0.240319,0.0571 -0.374205,0.118416 -1.161695,0.190629 -1.546769,0.141838 z m 0.627097,-0.08423 c 0.207506,-0.01432 0.46418,-0.05151 0.582899,-0.08438 0.116671,-0.03233 0.244406,-0.05885 0.283857,-0.05893 0.03945,-8.4e-5 0.225421,-0.04592 0.41327,-0.101849 0.18785,-0.05594 0.437737,-0.125473 0.555306,-0.154522 0.201552,-0.04983 0.60749,-0.195204 0.719473,-0.257703 0.028,-0.0156 0.152322,-0.07955 0.276266,-0.14205 0.123944,-0.06249 0.233163,-0.126267 0.242709,-0.141709 0.0095,-0.01544 0.09593,-0.08028 0.191972,-0.144069 0.20228,-0.134354 0.226769,-0.156753 0.832012,-0.760893 0.583732,-0.582669 0.679583,-0.687495 0.798277,-0.873044 0.05369,-0.08393 0.110249,-0.160404 0.125693,-0.169949 0.01544,-0.0095 0.07921,-0.118762 0.141709,-0.242706 0.0625,-0.123945 0.126605,-0.248265 0.142463,-0.276266 0.06163,-0.108838 0.232982,-0.589694 0.258978,-0.72677 0.01505,-0.0794 0.05177,-0.215973 0.08158,-0.303494 0.08395,-0.246451 0.173435,-0.579705 0.173335,-0.645545 -5.7e-5,-0.03272 0.02609,-0.160797 0.05809,-0.284621 0.07118,-0.275431 0.121504,-0.94068 0.08387,-1.108633 -0.01469,-0.06555 -0.03938,-0.230677 -0.05486,-0.366959 -0.01549,-0.136282 -0.05289,-0.326936 -0.08311,-0.423677 -0.03022,-0.09674 -0.08037,-0.278356 -0.111438,-0.403589 -0.110461,-0.44527 -0.146427,-0.572297 -0.232498,-0.821156 -0.147406,-0.426199 -0.256037,-0.66116 -0.423052,-0.915025 -0.193906,-0.294742 -0.46606,-0.607669 -0.949076,-1.09126 -0.696111,-0.696941 -1.128409,-1.028389 -1.589604,-1.218773 -0.383368,-0.158256 -0.618156,-0.231411 -1.366176,-0.425676 -0.934114,-0.242593 -1.589603,-0.280871 -2.174779,-0.126997 -0.123824,0.03256 -0.252052,0.0592 -0.284952,0.0592 -0.0329,0 -0.23898,0.05258 -0.457955,0.116853 -0.218974,0.06427 -0.487791,0.139886 -0.59737,0.168039 -0.187239,0.0481 -0.506352,0.16617 -0.6201518,0.229441 -0.028,0.01557 -0.152322,0.07944 -0.276266,0.141938 -0.123945,0.0625 -0.233845,0.127371 -0.244223,0.144162 -0.01038,0.01679 -0.07818,0.06794 -0.150663,0.113658 -0.178207,0.112402 -0.425705,0.334951 -0.885087,0.795867 -0.528267,0.530033 -0.662268,0.678014 -0.778511,0.859729 -0.05502,0.08601 -0.113588,0.16476 -0.130148,0.174995 -0.01656,0.01023 -0.08124,0.120018 -0.143741,0.243962 -0.0625,0.123944 -0.12637,0.248264 -0.141938,0.276266 -0.06902,0.124133 -0.183748,0.44167 -0.244638,0.677076 -0.03644,0.140887 -0.111966,0.409853 -0.16783,0.597702 -0.05587,0.187849 -0.101638,0.368313 -0.101718,0.401031 -8e-5,0.03272 -0.02668,0.160797 -0.05911,0.28462 -0.07073,0.270072 -0.11518,0.877192 -0.08011,1.094202 0.01383,0.08556 0.03704,0.258136 0.05159,0.383503 0.01454,0.125368 0.05168,0.311082 0.08253,0.412699 0.03084,0.101617 0.08154,0.287222 0.11266,0.412454 0.261449,1.05226 0.491515,1.594118 0.850403,2.002893 0.06007,0.06842 0.12992,0.155778 0.155222,0.194129 0.05145,0.07798 0.71643,0.755643 1.000112,1.019185 0.584737,0.543217 0.916789,0.748717 1.5723878,0.97312 0.281308,0.09629 0.409326,0.132722 0.85386,0.242999 0.125232,0.0311 0.306847,0.08122 0.403588,0.111441 0.09674,0.0302 0.284995,0.06735 0.418343,0.0825 0.133347,0.01516 0.291142,0.03898 0.350654,0.05302 0.141071,0.03322 0.109838,0.033 0.535898,0.0034 z m -0.50091,-0.439332 c -0.0083,-0.0083 -0.142573,-0.03428 -0.298289,-0.0577 -0.155716,-0.02338 -0.404795,-0.07587 -0.553509,-0.116626 -0.148714,-0.04077 -0.392064,-0.104741 -0.540778,-0.14219 -0.531423,-0.133823 -1.1046178,-0.375513 -1.4280168,-0.602126 -0.571546,-0.400491 -1.765804,-1.663143 -1.899909,-2.008711 -0.01362,-0.03511 -0.06326,-0.147092 -0.110304,-0.248843 -0.101868,-0.220345 -0.243676,-0.630636 -0.300035,-0.868091 -0.02229,-0.09392 -0.08536,-0.343679 -0.140151,-0.555009 -0.238839,-0.921231 -0.236572,-1.457451 0.0098,-2.30984 0.03011,-0.104181 0.05474,-0.214793 0.05474,-0.245804 0,-0.03101 0.03151,-0.150697 0.07002,-0.26597 0.03851,-0.115273 0.089,-0.280031 0.112194,-0.366129 0.188804,-0.700811 0.539935,-1.212782 1.411656,-2.058284 0.861807,-0.835884 1.071992,-0.963952 2.1073918,-1.284054 0.180684,-0.05586 0.351603,-0.101563 0.379818,-0.101563 0.02822,0 0.136542,-0.02464 0.240723,-0.05474 0.420793,-0.121609 0.730801,-0.172171 1.100205,-0.179445 0.409328,-0.0081 0.654039,0.0247 1.152711,0.154321 0.180023,0.04679 0.442584,0.11385 0.583471,0.149016 0.317488,0.07925 0.653947,0.194264 0.896553,0.306483 0.101751,0.04706 0.213731,0.09672 0.248843,0.110348 0.136027,0.05279 0.520705,0.350286 0.856624,0.662487 0.403525,0.375035 0.971972,0.975551 1.082137,1.143189 0.04132,0.06287 0.108864,0.158932 0.150102,0.213465 0.139855,0.184942 0.402894,0.843644 0.522637,1.308785 0.03828,0.148713 0.102461,0.392064 0.142615,0.540778 0.125277,0.463968 0.171163,0.80451 0.162991,1.209634 -0.0078,0.38688 -0.04036,0.573697 -0.223241,1.28079 -0.363128,1.404041 -0.499116,1.643325 -1.504422,2.64718 -0.558903,0.558094 -0.831627,0.791295 -1.1412,0.975828 -0.279005,0.166305 -0.752893,0.339837 -1.307487,0.478778 -0.09392,0.02354 -0.260427,0.06657 -0.370006,0.09565 -0.430746,0.114299 -0.755167,0.169365 -1.096349,0.186093 -0.195985,0.0096 -0.363163,0.01063 -0.371506,0.0022 z m 0.599764,-0.213956 c 0.276031,-0.02478 0.632402,-0.09853 1.038862,-0.215091 0.499635,-0.143281 0.771189,-0.220187 0.825398,-0.23376 0.03131,-0.0078 0.17111,-0.06615 0.310672,-0.129584 0.431243,-0.196004 0.743166,-0.439266 1.380635,-1.076732 0.796009,-0.796012 1.058587,-1.182493 1.245774,-1.83362 0.0405,-0.140887 0.09574,-0.333005 0.122752,-0.42693 0.05384,-0.187221 0.106104,-0.384855 0.199451,-0.754243 0.03362,-0.133059 0.07518,-0.416683 0.09233,-0.630275 0.02691,-0.335003 0.02451,-0.42688 -0.01752,-0.668857 -0.06674,-0.384317 -0.08601,-0.473268 -0.159373,-0.7359 -0.03498,-0.125233 -0.08293,-0.304544 -0.106551,-0.398468 -0.180556,-0.718004 -0.39322,-1.192952 -0.713674,-1.593871 -0.20656,-0.258427 -1.101056,-1.152678 -1.360386,-1.360017 -0.23554,-0.188317 -0.587435,-0.388806 -0.809114,-0.460985 -0.0861,-0.02804 -0.191914,-0.06885 -0.235147,-0.09071 -0.08078,-0.04084 -0.53763,-0.17281 -0.689868,-0.199281 -0.04696,-0.0082 -0.213465,-0.05046 -0.370005,-0.09398 -0.466371,-0.129659 -0.871663,-0.181149 -1.243907,-0.158031 -0.176827,0.01098 -0.372734,0.03256 -0.435351,0.04795 -0.06262,0.01539 -0.222715,0.05183 -0.355775,0.08098 -0.233773,0.05121 -0.431962,0.105767 -0.882321,0.242885 -0.117406,0.03574 -0.251889,0.07344 -0.298852,0.08376 -0.166543,0.03661 -0.5885348,0.245435 -0.7909008,0.391393 -0.292528,0.210991 -0.524727,0.416027 -0.929233,0.820533 -0.644859,0.644858 -0.907335,0.986695 -1.100701,1.433496 -0.06823,0.157651 -0.12426,0.305808 -0.124516,0.329235 -2.56e-4,0.02343 -0.03084,0.138699 -0.06796,0.256158 -0.121004,0.382861 -0.191447,0.636171 -0.245389,0.882418 -0.02915,0.13306 -0.06546,0.293159 -0.0807,0.355776 -0.01524,0.06262 -0.03658,0.259911 -0.04744,0.438433 -0.02283,0.375549 0.02783,0.775364 0.157239,1.240824 0.04352,0.156541 0.08581,0.323044 0.09398,0.370006 0.02647,0.152237 0.158441,0.609091 0.199281,0.689868 0.02186,0.04323 0.06268,0.149049 0.09071,0.235147 0.07258,0.222891 0.2733,0.574542 0.46185,0.809113 0.224591,0.27941 1.083963,1.138258 1.359152,1.358321 0.220814,0.17658 0.5806968,0.393025 0.7257808,0.436503 0.03913,0.01175 0.180022,0.06277 0.313082,0.113421 0.13306,0.05067 0.363602,0.121071 0.512316,0.156474 0.148714,0.0354 0.397179,0.101301 0.552145,0.146446 0.154965,0.04513 0.321468,0.08331 0.370006,0.08482 0.04854,0.0017 0.158693,0.01896 0.244791,0.03876 0.192232,0.04424 0.414648,0.04933 0.768474,0.01762 z m -0.896553,-0.367913 c -0.140887,-0.02785 -0.384237,-0.08557 -0.540778,-0.128337 -0.156541,-0.04278 -0.406295,-0.110227 -0.555009,-0.14993 -0.599084,-0.15993 -1.045887,-0.39048 -1.4498908,-0.748147 -0.481461,-0.426246 -1.106724,-1.090668 -1.292866,-1.373844 -0.172115,-0.261839 -0.342095,-0.663421 -0.455607,-1.076391 -0.04088,-0.148714 -0.100979,-0.366448 -0.133562,-0.483854 -0.03258,-0.117405 -0.09099,-0.373563 -0.129797,-0.569239 -0.141881,-0.715419 -0.06908,-1.240938 0.361196,-2.607191 0.193963,-0.615895 0.360769,-0.859426 1.105727,-1.614325 0.76541,-0.775624 1.0687258,-0.987821 1.6930308,-1.184433 0.936651,-0.294979 1.406651,-0.402596 1.839218,-0.421135 0.487487,-0.02089 0.694836,0.01597 1.821066,0.323731 0.566288,0.154748 1.036548,0.383932 1.351945,0.658878 0.223007,0.194405 0.912522,0.87754 1.097648,1.087491 0.364121,0.41295 0.584962,0.840696 0.749429,1.451562 0.04004,0.148714 0.11028,0.411276 0.156092,0.583471 0.249113,0.936362 0.235707,1.382771 -0.07436,2.476193 -0.342817,1.208905 -0.45286,1.393859 -1.364659,2.293652 -0.586802,0.579073 -0.792256,0.744763 -1.138813,0.918407 -0.276901,0.138739 -0.904502,0.335939 -1.645371,0.516999 -0.417131,0.101939 -1.013116,0.121787 -1.394638,0.04642 z m 0.918087,-0.245622 c 0.391323,-0.05942 1.311858,-0.300773 1.75734,-0.460759 0.427363,-0.153476 0.621633,-0.301264 1.338969,-1.0186 0.92919,-0.929191 0.960124,-0.985512 1.337258,-2.434755 0.142192,-0.546412 0.181328,-0.840456 0.155315,-1.166942 -0.02428,-0.304697 -0.0886,-0.643241 -0.17035,-0.896553 -0.03031,-0.09392 -0.06868,-0.234811 -0.08527,-0.313082 -0.101546,-0.47913 -0.316363,-0.992961 -0.551832,-1.319949 -0.221626,-0.307764 -1.107926,-1.194063 -1.415689,-1.415689 -0.326462,-0.23509 -0.834992,-0.447879 -1.31995,-0.55232 -0.07827,-0.01686 -0.225561,-0.05634 -0.327312,-0.08774 -0.726453,-0.2242 -1.226546,-0.227229 -2.049264,-0.01241 -1.451297,0.378943 -1.504148,0.407971 -2.4356878,1.337842 -0.390204,0.389503 -0.690256,0.7134 -0.739201,0.797944 -0.04531,0.07827 -0.109549,0.182744 -0.142745,0.232163 -0.146099,0.217497 -0.542761,1.605738 -0.60459,2.115952 -0.04238,0.34975 0.02254,0.884911 0.162285,1.337714 0.0314,0.101751 0.07089,0.249042 0.08774,0.327312 0.1046,0.4857 0.317215,0.993412 0.553514,1.321759 0.209766,0.29148 1.079071,1.16734 1.37806,1.388455 0.3452278,0.255309 0.7987428,0.447744 1.3621748,0.577999 0.137702,0.03182 0.301599,0.07653 0.364215,0.09932 0.162538,0.05916 0.531461,0.131105 0.796936,0.155417 0.125233,0.01147 0.237386,0.02271 0.24923,0.02494 0.01185,0.0022 0.146326,-0.01488 0.298851,-0.03803 z m -0.53385,-0.306108 c -0.148714,-0.01175 -0.392064,-0.05308 -0.540778,-0.09184 -1.064953,-0.277708 -1.168127,-0.310772 -1.487824,-0.47676 -0.281842,-0.146328 -0.5054938,-0.330508 -0.9913648,-0.816378 -0.757016,-0.757014 -0.906365,-1.005282 -1.140404,-1.895718 -0.04526,-0.172195 -0.116086,-0.441161 -0.157392,-0.597702 -0.0653,-0.247459 -0.07525,-0.342217 -0.07625,-0.72578 -0.0012,-0.481662 -0.0241,-0.365231 0.323138,-1.646822 0.08394,-0.309795 0.25582,-0.676997 0.413993,-0.884425 0.180932,-0.237276 1.088427,-1.144682 1.3238598,-1.32373 0.303683,-0.230953 0.6481,-0.363247 1.533556,-0.589053 0.628754,-0.160344 0.730199,-0.174665 1.112549,-0.157069 0.244763,0.01126 0.440144,0.03867 0.626163,0.08782 0.148714,0.03929 0.411276,0.108532 0.583471,0.153857 0.634252,0.166946 0.988926,0.326676 1.310307,0.590106 0.238347,0.19537 0.940155,0.897177 1.135524,1.135524 0.08326,0.101579 0.203082,0.284258 0.266267,0.405954 0.165877,0.319485 0.203219,0.436082 0.476507,1.487824 0.08184,0.314953 0.121568,0.735725 0.09343,0.989466 -0.02039,0.183849 -0.196699,0.917861 -0.322929,1.344417 -0.206243,0.696938 -0.324458,0.876195 -1.068488,1.620226 -0.85316,0.853159 -0.970483,0.916625 -2.319268,1.254634 -0.557805,0.139791 -0.745087,0.162973 -1.094063,0.135445 z m 0.583471,-0.38968 c 0.605055,-0.125373 1.295438,-0.323613 1.594838,-0.457945 0.280787,-0.125983 0.417235,-0.231343 0.864131,-0.667257 0.84993,-0.829041 0.942086,-0.988511 1.242484,-2.150049 0.161408,-0.624112 0.184211,-0.785608 0.154724,-1.095787 -0.01488,-0.15654 -0.06724,-0.438314 -0.116357,-0.626163 -0.04912,-0.187849 -0.117921,-0.450411 -0.152905,-0.583471 -0.10616,-0.40378 -0.208268,-0.651017 -0.358794,-0.868761 -0.18153,-0.262592 -1.11438,-1.194691 -1.378092,-1.376981 -0.199328,-0.137786 -0.569813,-0.287308 -0.953477,-0.384811 -0.101751,-0.02586 -0.331655,-0.08553 -0.510897,-0.132602 -0.602178,-0.158145 -0.982061,-0.158039 -1.538366,4.3e-4 -0.101751,0.02899 -0.249043,0.0677 -0.327313,0.08603 -0.250125,0.05858 -0.705846,0.20675 -0.890176,0.289433 -0.274881,0.1233 -0.409352,0.228614 -0.8835688,0.691986 -0.52391,0.51193 -0.75152,0.786749 -0.87367,1.054882 -0.09099,0.199736 -0.23726,0.644288 -0.29967,0.910784 -0.01833,0.07827 -0.05704,0.225561 -0.08603,0.327313 -0.10732,0.376746 -0.141691,0.666627 -0.112395,0.947937 0.02687,0.258016 0.115569,0.654243 0.227429,1.01594 0.03147,0.101752 0.05731,0.207976 0.05743,0.236055 4.95e-4,0.116244 0.215647,0.616689 0.347073,0.807292 0.178768,0.259261 1.1120308,1.191094 1.3780718,1.375959 0.212408,0.147598 0.462164,0.250504 0.865113,0.356442 0.13306,0.03501 0.395622,0.104036 0.583471,0.153448 0.288097,0.07578 0.596323,0.126307 0.85386,0.139964 0.03131,0.0017 0.172195,-0.02086 0.313082,-0.05006 z m -0.711289,-0.364711 c -0.04682,-0.0069 -0.226129,-0.05028 -0.398468,-0.09641 -0.172339,-0.04614 -0.428614,-0.113863 -0.569501,-0.150485 -0.39504,-0.102685 -0.628125,-0.208939 -0.850662,-0.387784 -0.217904,-0.17512 -0.9734878,-0.934112 -1.1217018,-1.126761 -0.127401,-0.165597 -0.253144,-0.459926 -0.33217,-0.777521 -0.03722,-0.149575 -0.108538,-0.419246 -0.158489,-0.599269 -0.151402,-0.545658 -0.144849,-1.021088 0.02059,-1.494076 0.02187,-0.06252 0.05873,-0.203405 0.08192,-0.313082 0.06427,-0.304029 0.187717,-0.638464 0.32283,-0.874612 0.179724,-0.314114 1.0626068,-1.19152 1.3809228,-1.372355 0.223306,-0.12686 0.638005,-0.275263 0.912917,-0.326695 0.07827,-0.01464 0.199946,-0.04604 0.270389,-0.06977 0.491776,-0.165651 0.931178,-0.171294 1.480023,-0.019 0.180023,0.04995 0.449694,0.12127 0.599269,0.158488 0.317594,0.07903 0.611924,0.204769 0.777521,0.33217 0.192649,0.148214 0.951641,0.903798 1.126761,1.121702 0.180216,0.224244 0.288401,0.461994 0.387085,0.850662 0.03577,0.140887 0.105972,0.403449 0.156,0.583471 0.123003,0.442612 0.144085,0.853935 0.06054,1.181173 -0.03197,0.125233 -0.08599,0.336563 -0.120029,0.469623 -0.238017,0.930311 -0.319013,1.072473 -0.999792,1.754798 -0.660236,0.661735 -0.871424,0.78756 -1.635537,0.974442 -0.123056,0.0301 -0.351817,0.08778 -0.508358,0.128196 -0.275297,0.07107 -0.619127,0.09177 -0.88206,0.05308 z m 0.620036,-0.449844 c 0.13766,-0.02408 0.284951,-0.05711 0.327313,-0.0734 0.04236,-0.01629 0.249189,-0.07389 0.459615,-0.127989 0.460447,-0.118386 0.578301,-0.168156 0.791657,-0.334311 0.185012,-0.144082 0.889981,-0.85298 1.027566,-1.033293 0.12889,-0.168917 0.187624,-0.316242 0.299414,-0.751033 0.0541,-0.210427 0.112423,-0.41916 0.129599,-0.463852 0.05803,-0.150993 0.120903,-0.626296 0.102198,-0.772602 -0.01001,-0.07827 -0.04171,-0.225561 -0.07045,-0.327312 -0.02874,-0.101752 -0.09276,-0.338698 -0.142263,-0.526547 -0.10461,-0.396934 -0.207508,-0.665065 -0.316755,-0.825398 -0.04267,-0.06262 -0.299763,-0.33213 -0.571329,-0.598919 -0.430327,-0.422757 -0.51935,-0.496656 -0.69299,-0.575259 -0.250874,-0.113566 -0.950725,-0.315629 -1.4231,-0.410883 -0.175974,-0.03549 -0.560283,0.01121 -0.86809,0.105469 -0.117406,0.03596 -0.347275,0.09911 -0.51082,0.140356 -0.527804,0.133099 -0.647076,0.212018 -1.257019,0.831743 -0.5768338,0.586084 -0.6426678,0.691594 -0.7693348,1.232988 -0.03117,0.133217 -0.08644,0.338272 -0.122816,0.455678 -0.09373,0.302483 -0.141727,0.69087 -0.107277,0.86809 0.01521,0.07827 0.07528,0.321621 0.133479,0.540779 0.0582,0.219157 0.118158,0.449287 0.133243,0.5114 0.01508,0.06211 0.07848,0.221873 0.140871,0.355022 0.104754,0.223538 0.149891,0.278869 0.5890498,0.722083 0.261582,0.263996 0.526835,0.514945 0.589451,0.557665 0.209199,0.142725 0.38381,0.203506 1.209635,0.421075 0.527625,0.139006 0.558088,0.141606 0.919148,0.07845 z m -0.549142,-0.297321 c -0.103784,-0.02256 -0.761146,-0.199505 -1.013481,-0.272802 -0.263607,-0.07657 -0.463252,-0.225847 -0.922744,-0.689935 -0.31935,-0.322545 -0.466708,-0.493771 -0.531135,-0.617164 -0.08554,-0.163821 -0.3259568,-0.98793 -0.3885358,-1.331808 -0.03684,-0.202431 0.004,-0.520895 0.105401,-0.822862 0.03837,-0.114221 0.09173,-0.310138 0.118578,-0.435371 0.09154,-0.427036 0.1659058,-0.539848 0.7233818,-1.097324 0.567878,-0.567878 0.635628,-0.611401 1.154292,-0.741513 0.172195,-0.0432 0.402737,-0.105158 0.512316,-0.13769 0.254557,-0.07557 0.530455,-0.10068 0.711549,-0.06475 0.363324,0.07208 1.155604,0.304813 1.309252,0.384595 0.226216,0.117462 1.071584,0.956769 1.192902,1.184349 0.09409,0.176498 0.380253,1.184635 0.405889,1.429911 0.01965,0.187945 -0.01639,0.406276 -0.130835,0.792838 -0.04403,0.148714 -0.100628,0.356949 -0.125773,0.462745 -0.08991,0.378282 -0.157808,0.477162 -0.699856,1.01921 -0.542048,0.542048 -0.640928,0.609945 -1.01921,0.699855 -0.105796,0.02515 -0.314031,0.0815 -0.462745,0.125239 -0.477186,0.140336 -0.692491,0.166121 -0.939246,0.11248 z m 0.654625,-0.574533 c 0.117406,-0.03189 0.32974,-0.08731 0.471853,-0.12314 0.142113,-0.03583 0.321423,-0.09761 0.398468,-0.137278 0.176477,-0.09087 0.919927,-0.836699 1.00651,-1.009734 0.03371,-0.06736 0.08734,-0.227459 0.119198,-0.355775 0.03185,-0.128315 0.0897,-0.342168 0.128549,-0.475228 0.100566,-0.344447 0.09783,-0.548084 -0.01204,-0.896552 -0.04936,-0.156541 -0.110961,-0.380679 -0.1369,-0.498085 -0.02594,-0.117406 -0.06645,-0.251888 -0.09002,-0.298851 -0.05187,-0.103333 -0.838294,-0.904901 -0.966165,-0.984777 -0.05002,-0.03125 -0.261354,-0.100283 -0.469624,-0.153414 -0.208269,-0.05313 -0.430071,-0.114918 -0.492895,-0.137306 -0.269666,-0.0961 -0.388709,-0.08481 -1.109641,0.10521 -0.525492,0.138509 -0.553051,0.155078 -1.018302,0.612234 -0.307578,0.302225 -0.440752,0.454468 -0.495591,0.566556 -0.13442,0.274745 -0.366136,1.232567 -0.334569,1.382975 0.01022,0.0487 0.06069,0.229432 0.112154,0.401628 0.05147,0.172195 0.108941,0.389929 0.127727,0.483853 0.01879,0.09392 0.06419,0.222004 0.100901,0.28462 0.08154,0.139087 0.876763,0.929146 0.995364,0.988904 0.04696,0.02366 0.181445,0.06424 0.298851,0.09018 0.117405,0.02594 0.33514,0.08403 0.483854,0.129099 0.148714,0.04507 0.296004,0.08833 0.327312,0.09614 0.08871,0.02213 0.32104,-0.0077 0.555009,-0.07126 z m -0.626163,-0.269837 c -0.02348,-0.0078 -0.100329,-0.03739 -0.170772,-0.06571 -0.07044,-0.02832 -0.235858,-0.07296 -0.367589,-0.0992 -0.131729,-0.02624 -0.285424,-0.07122 -0.341544,-0.09995 -0.157382,-0.08057 -0.826493,-0.759303 -0.889944,-0.902744 -0.02961,-0.06694 -0.07754,-0.227646 -0.106509,-0.357133 -0.02897,-0.129487 -0.07973,-0.308756 -0.11279,-0.398376 -0.07019,-0.190262 -0.07566,-0.37277 -0.01772,-0.591297 0.02283,-0.0861 0.06865,-0.265409 0.101833,-0.398468 0.114759,-0.460225 0.116839,-0.463621 0.55084,-0.899068 0.220394,-0.221128 0.441843,-0.423164 0.49211,-0.448969 0.05027,-0.0258 0.184751,-0.06654 0.298852,-0.09051 0.1141,-0.02398 0.307378,-0.07514 0.429505,-0.11369 0.273288,-0.08627 0.481681,-0.08926 0.696561,-0.01 0.08962,0.03307 0.268889,0.08382 0.398376,0.11279 0.378365,0.08465 0.445168,0.126433 0.843239,0.527382 0.386073,0.388863 0.444342,0.473193 0.499437,0.722812 0.05242,0.237475 0.10563,0.428859 0.154324,0.555009 0.05964,0.154518 0.05462,0.386641 -0.01354,0.626164 -0.03118,0.109578 -0.08201,0.30619 -0.11296,0.436914 -0.03094,0.130725 -0.07697,0.278016 -0.102271,0.327314 -0.0253,0.0493 -0.22693,0.269954 -0.448058,0.490347 -0.435447,0.434001 -0.438843,0.436081 -0.899067,0.55084 -0.13306,0.03318 -0.312371,0.07901 -0.398468,0.101834 -0.152317,0.04039 -0.397639,0.0524 -0.483854,0.02369 z m 0.495366,-0.648091 c 0.100971,-0.038 0.245352,-0.07818 0.320847,-0.08926 0.213589,-0.03138 0.232234,-0.04364 0.558972,-0.367617 0.324702,-0.32196 0.341457,-0.347301 0.373403,-0.564757 0.01109,-0.07549 0.05126,-0.219876 0.08926,-0.320847 0.08337,-0.221483 0.08467,-0.265412 0.01436,-0.482725 -0.0301,-0.09305 -0.07596,-0.269125 -0.101895,-0.391277 l -0.04716,-0.222095 -0.324272,-0.322772 -0.324272,-0.322772 -0.221343,-0.04743 c -0.121738,-0.02609 -0.297475,-0.07228 -0.390526,-0.102643 -0.217047,-0.07083 -0.261001,-0.06957 -0.482724,0.01389 -0.100971,0.038 -0.245353,0.07817 -0.320847,0.08926 -0.0755,0.01109 -0.163644,0.02998 -0.195886,0.04198 -0.04465,0.01662 -0.69562,0.64004 -0.69562,0.666179 0,0.07187 -0.07879,0.396493 -0.136231,0.561278 -0.06931,0.198833 -0.07289,0.229106 -0.04035,0.341544 0.01964,0.06786 0.0706,0.263816 0.113255,0.435469 l 0.07755,0.312096 0.318869,0.318946 0.318869,0.318946 0.221909,0.04721 c 0.12205,0.02597 0.292352,0.07079 0.37845,0.09961 0.210677,0.07051 0.280133,0.0688 0.495366,-0.01221 z m -0.441982,-0.360314 c -0.345306,-0.04566 -0.667397,-0.23958 -0.858119,-0.516629 -0.14235,-0.206781 -0.184119,-0.318599 -0.216451,-0.579448 -0.03486,-0.281226 -0.0061,-0.446582 0.123609,-0.710899 0.170153,-0.346717 0.530937,-0.620666 0.912438,-0.692827 0.166072,-0.03141 0.539284,0.0072 0.693913,0.0717 0.284213,0.118645 0.564294,0.396564 0.686156,0.680858 0.07488,0.174696 0.116478,0.531797 0.08273,0.710235 -0.06754,0.357086 -0.336498,0.727762 -0.645907,0.890196 -0.286958,0.150648 -0.47754,0.186595 -0.778366,0.146812 z"
       id="path866"
       inkscape:connector-curvature="0" />
  </g>
</svg>
