solid OpenSCAD_Model
  facet normal 1 -0 0
    outer loop
      vertex 50 -7.5 9
      vertex 50 7.5 -9
      vertex 50 7.5 9
    endloop
  endfacet
  facet normal 1 0 0
    outer loop
      vertex 50 7.5 -9
      vertex 50 -7.5 9
      vertex 50 -7.5 -9
    endloop
  endfacet
  facet normal 0 0 1
    outer loop
      vertex 50 7.5 9
      vertex 45.5 0.7 9
      vertex 50 -7.5 9
    endloop
  endfacet
  facet normal 0 0 1
    outer loop
      vertex 50 7.5 9
      vertex 44 4.25 9
      vertex 45.5 0.7 9
    endloop
  endfacet
  facet normal -0 0 1
    outer loop
      vertex 42.25 7.5 9
      vertex 44 4.25 9
      vertex 50 7.5 9
    endloop
  endfacet
  facet normal 0 0 1
    outer loop
      vertex 44 4.25 9
      vertex 42.25 7.5 9
      vertex 42.25 4.25 9
    endloop
  endfacet
  facet normal -0 0 1
    outer loop
      vertex 45.5 -0.7 9
      vertex 50 -7.5 9
      vertex 45.5 0.7 9
    endloop
  endfacet
  facet normal 0 0 1
    outer loop
      vertex 44 -4.25 9
      vertex 45.5 -0.7 9
      vertex 44 -0.7 9
    endloop
  endfacet
  facet normal 0 0 1
    outer loop
      vertex 45.5 -0.7 9
      vertex 44 -4.25 9
      vertex 50 -7.5 9
    endloop
  endfacet
  facet normal 0 0 1
    outer loop
      vertex 42.25 -7.5 9
      vertex 44 -4.25 9
      vertex 42.25 -4.25 9
    endloop
  endfacet
  facet normal 0 0 1
    outer loop
      vertex 44 -4.25 9
      vertex 42.25 -7.5 9
      vertex 50 -7.5 9
    endloop
  endfacet
  facet normal 0 0 1
    outer loop
      vertex 45.5 0.7 9
      vertex 44 4.25 9
      vertex 44 0.7 9
    endloop
  endfacet
  facet normal 0 0 -1
    outer loop
      vertex 50 -7.5 -9
      vertex 44 -4.25 -9
      vertex 50 7.5 -9
    endloop
  endfacet
  facet normal 0 0 -1
    outer loop
      vertex 38 -7.5 -9
      vertex 44 -4.25 -9
      vertex 50 -7.5 -9
    endloop
  endfacet
  facet normal -0 0 -1
    outer loop
      vertex 44 -4.25 -9
      vertex 38 -7.5 -9
      vertex 38 -4.25 -9
    endloop
  endfacet
  facet normal 0 0 -1
    outer loop
      vertex 44 4.25 -9
      vertex 50 7.5 -9
      vertex 44 -4.25 -9
    endloop
  endfacet
  facet normal 0 0 -1
    outer loop
      vertex 38 7.5 -9
      vertex 44 4.25 -9
      vertex 38 4.25 -9
    endloop
  endfacet
  facet normal 0 0 -1
    outer loop
      vertex 44 4.25 -9
      vertex 38 7.5 -9
      vertex 50 7.5 -9
    endloop
  endfacet
  facet normal 0 1 0
    outer loop
      vertex 50 7.5 9
      vertex 42.25 7.5 5.5
      vertex 42.25 7.5 9
    endloop
  endfacet
  facet normal 0 1 -0
    outer loop
      vertex 50 7.5 -9
      vertex 42.25 7.5 5.5
      vertex 50 7.5 9
    endloop
  endfacet
  facet normal 0 1 0
    outer loop
      vertex 38 7.5 -9
      vertex 42.25 7.5 5.5
      vertex 50 7.5 -9
    endloop
  endfacet
  facet normal 0 1 0
    outer loop
      vertex 42.25 7.5 5.5
      vertex 38 7.5 -9
      vertex 38 7.5 5.5
    endloop
  endfacet
  facet normal 0 -1 0
    outer loop
      vertex 38 -7.5 5.5
      vertex 38 -7.5 -9
      vertex 42.25 -7.5 5.5
    endloop
  endfacet
  facet normal 0 -1 0
    outer loop
      vertex 42.25 -7.5 5.5
      vertex 50 -7.5 9
      vertex 42.25 -7.5 9
    endloop
  endfacet
  facet normal 0 -1 0
    outer loop
      vertex 50 -7.5 -9
      vertex 42.25 -7.5 5.5
      vertex 38 -7.5 -9
    endloop
  endfacet
  facet normal 0 -1 0
    outer loop
      vertex 42.25 -7.5 5.5
      vertex 50 -7.5 -9
      vertex 50 -7.5 9
    endloop
  endfacet
  facet normal -1 0 0
    outer loop
      vertex 45.5 -0.7 3
      vertex 45.5 0.7 9
      vertex 45.5 0.7 3
    endloop
  endfacet
  facet normal -1 -0 0
    outer loop
      vertex 45.5 0.7 9
      vertex 45.5 -0.7 3
      vertex 45.5 -0.7 9
    endloop
  endfacet
  facet normal -0 0 1
    outer loop
      vertex 44 0.7 3
      vertex 45.5 -0.7 3
      vertex 45.5 0.7 3
    endloop
  endfacet
  facet normal 0 0 1
    outer loop
      vertex 45.5 -0.7 3
      vertex 44 0.7 3
      vertex 44 -0.7 3
    endloop
  endfacet
  facet normal 0 -1 0
    outer loop
      vertex 44 0.7 3
      vertex 45.5 0.7 9
      vertex 44 0.7 9
    endloop
  endfacet
  facet normal 0 -1 -0
    outer loop
      vertex 45.5 0.7 9
      vertex 44 0.7 3
      vertex 45.5 0.7 3
    endloop
  endfacet
  facet normal 0 1 -0
    outer loop
      vertex 45.5 -0.7 3
      vertex 44 -0.7 9
      vertex 45.5 -0.7 9
    endloop
  endfacet
  facet normal 0 1 0
    outer loop
      vertex 44 -0.7 9
      vertex 45.5 -0.7 3
      vertex 44 -0.7 3
    endloop
  endfacet
  facet normal -1 0 0
    outer loop
      vertex 42.25 4.25 5.5
      vertex 42.25 7.5 9
      vertex 42.25 7.5 5.5
    endloop
  endfacet
  facet normal -1 -0 0
    outer loop
      vertex 42.25 7.5 9
      vertex 42.25 4.25 5.5
      vertex 42.25 4.25 9
    endloop
  endfacet
  facet normal -1 0 0
    outer loop
      vertex 42.25 -7.5 5.5
      vertex 42.25 -4.25 9
      vertex 42.25 -4.25 5.5
    endloop
  endfacet
  facet normal -1 -0 0
    outer loop
      vertex 42.25 -4.25 9
      vertex 42.25 -7.5 5.5
      vertex 42.25 -7.5 9
    endloop
  endfacet
  facet normal -0 0 1
    outer loop
      vertex 38 7.5 5.5
      vertex 42.25 4.25 5.5
      vertex 42.25 7.5 5.5
    endloop
  endfacet
  facet normal 0 0 1
    outer loop
      vertex 42.25 4.25 5.5
      vertex 38 7.5 5.5
      vertex 38 4.25 5.5
    endloop
  endfacet
  facet normal -0 0 1
    outer loop
      vertex 38 -4.25 5.5
      vertex 42.25 -7.5 5.5
      vertex 42.25 -4.25 5.5
    endloop
  endfacet
  facet normal 0 0 1
    outer loop
      vertex 42.25 -7.5 5.5
      vertex 38 -4.25 5.5
      vertex 38 -7.5 5.5
    endloop
  endfacet
  facet normal -1 0 0
    outer loop
      vertex 38 -7.5 -9
      vertex 38 -4.25 5.5
      vertex 38 -4.25 -9
    endloop
  endfacet
  facet normal -1 -0 0
    outer loop
      vertex 38 -4.25 5.5
      vertex 38 -7.5 -9
      vertex 38 -7.5 5.5
    endloop
  endfacet
  facet normal -1 0 0
    outer loop
      vertex 38 4.25 -9
      vertex 38 7.5 5.5
      vertex 38 7.5 -9
    endloop
  endfacet
  facet normal -1 -0 0
    outer loop
      vertex 38 7.5 5.5
      vertex 38 4.25 -9
      vertex 38 4.25 5.5
    endloop
  endfacet
  facet normal -1 0 0
    outer loop
      vertex 44 4.25 -9
      vertex 44 0.7 3
      vertex 44 4.25 9
    endloop
  endfacet
  facet normal -1 0 0
    outer loop
      vertex 44 4.25 -9
      vertex 44 -0.7 3
      vertex 44 0.7 3
    endloop
  endfacet
  facet normal -1 0 0
    outer loop
      vertex 44 -4.25 -9
      vertex 44 -0.7 3
      vertex 44 4.25 -9
    endloop
  endfacet
  facet normal -1 0 0
    outer loop
      vertex 44 -4.25 9
      vertex 44 -0.7 3
      vertex 44 -4.25 -9
    endloop
  endfacet
  facet normal -1 0 0
    outer loop
      vertex 44 -0.7 3
      vertex 44 -4.25 9
      vertex 44 -0.7 9
    endloop
  endfacet
  facet normal -1 -0 0
    outer loop
      vertex 44 4.25 9
      vertex 44 0.7 3
      vertex 44 0.7 9
    endloop
  endfacet
  facet normal 0 -1 0
    outer loop
      vertex 38 4.25 5.5
      vertex 38 4.25 -9
      vertex 42.25 4.25 5.5
    endloop
  endfacet
  facet normal 0 -1 0
    outer loop
      vertex 42.25 4.25 5.5
      vertex 44 4.25 9
      vertex 42.25 4.25 9
    endloop
  endfacet
  facet normal 0 -1 0
    outer loop
      vertex 44 4.25 -9
      vertex 42.25 4.25 5.5
      vertex 38 4.25 -9
    endloop
  endfacet
  facet normal 0 -1 0
    outer loop
      vertex 42.25 4.25 5.5
      vertex 44 4.25 -9
      vertex 44 4.25 9
    endloop
  endfacet
  facet normal 0 1 0
    outer loop
      vertex 44 -4.25 9
      vertex 42.25 -4.25 5.5
      vertex 42.25 -4.25 9
    endloop
  endfacet
  facet normal 0 1 -0
    outer loop
      vertex 44 -4.25 -9
      vertex 42.25 -4.25 5.5
      vertex 44 -4.25 9
    endloop
  endfacet
  facet normal 0 1 0
    outer loop
      vertex 38 -4.25 -9
      vertex 42.25 -4.25 5.5
      vertex 44 -4.25 -9
    endloop
  endfacet
  facet normal 0 1 0
    outer loop
      vertex 42.25 -4.25 5.5
      vertex 38 -4.25 -9
      vertex 38 -4.25 5.5
    endloop
  endfacet
endsolid OpenSCAD_Model
