solid OpenSCAD_Model
  facet normal 1 -0 0
    outer loop
      vertex 30 -7.5 9
      vertex 30 7.5 -9
      vertex 30 7.5 9
    endloop
  endfacet
  facet normal 1 0 0
    outer loop
      vertex 30 7.5 -9
      vertex 30 -7.5 9
      vertex 30 -7.5 -9
    endloop
  endfacet
  facet normal 0 0 1
    outer loop
      vertex -22.5 7.5 9
      vertex -25.5 0.75 9
      vertex -22.5 0.75 9
    endloop
  endfacet
  facet normal 0 0 1
    outer loop
      vertex -25.5 0.75 9
      vertex -30 7.5 9
      vertex -25.5 -0.75 9
    endloop
  endfacet
  facet normal -0 0 1
    outer loop
      vertex -30 7.5 9
      vertex -25.5 0.75 9
      vertex -22.5 7.5 9
    endloop
  endfacet
  facet normal -0 0 1
    outer loop
      vertex -25.5 -0.75 9
      vertex -22.5 -7.5 9
      vertex -22.5 -0.75 9
    endloop
  endfacet
  facet normal 0 0 1
    outer loop
      vertex -30 -7.5 9
      vertex -25.5 -0.75 9
      vertex -30 7.5 9
    endloop
  endfacet
  facet normal 0 0 1
    outer loop
      vertex -25.5 -0.75 9
      vertex -30 -7.5 9
      vertex -22.5 -7.5 9
    endloop
  endfacet
  facet normal 0 0 1
    outer loop
      vertex 30 7.5 9
      vertex 25.5 0.75 9
      vertex 30 -7.5 9
    endloop
  endfacet
  facet normal -0 0 1
    outer loop
      vertex 22.5 7.5 9
      vertex 25.5 0.75 9
      vertex 30 7.5 9
    endloop
  endfacet
  facet normal 0 0 1
    outer loop
      vertex 25.5 0.75 9
      vertex 22.5 7.5 9
      vertex 22.5 0.75 9
    endloop
  endfacet
  facet normal -0 0 1
    outer loop
      vertex 25.5 -0.75 9
      vertex 30 -7.5 9
      vertex 25.5 0.75 9
    endloop
  endfacet
  facet normal 0 0 1
    outer loop
      vertex 22.5 -7.5 9
      vertex 25.5 -0.75 9
      vertex 22.5 -0.75 9
    endloop
  endfacet
  facet normal 0 0 1
    outer loop
      vertex 25.5 -0.75 9
      vertex 22.5 -7.5 9
      vertex 30 -7.5 9
    endloop
  endfacet
  facet normal 0 0 -1
    outer loop
      vertex -30 -7.5 -9
      vertex 30 7.5 -9
      vertex 30 -7.5 -9
    endloop
  endfacet
  facet normal -0 0 -1
    outer loop
      vertex 30 7.5 -9
      vertex -30 -7.5 -9
      vertex -30 7.5 -9
    endloop
  endfacet
  facet normal -1 0 0
    outer loop
      vertex -30 -7.5 -9
      vertex -30 7.5 9
      vertex -30 7.5 -9
    endloop
  endfacet
  facet normal -1 -0 0
    outer loop
      vertex -30 7.5 9
      vertex -30 -7.5 -9
      vertex -30 -7.5 9
    endloop
  endfacet
  facet normal 0 1 0
    outer loop
      vertex 30 7.5 9
      vertex 22.5 7.5 5
      vertex 22.5 7.5 9
    endloop
  endfacet
  facet normal 0 1 0
    outer loop
      vertex 22.5 7.5 5
      vertex 30 7.5 -9
      vertex -22.5 7.5 5
    endloop
  endfacet
  facet normal 0 1 -0
    outer loop
      vertex 30 7.5 -9
      vertex 22.5 7.5 5
      vertex 30 7.5 9
    endloop
  endfacet
  facet normal 0 1 -0
    outer loop
      vertex -22.5 7.5 5
      vertex -30 7.5 9
      vertex -22.5 7.5 9
    endloop
  endfacet
  facet normal 0 1 0
    outer loop
      vertex -22.5 7.5 5
      vertex -30 7.5 -9
      vertex -30 7.5 9
    endloop
  endfacet
  facet normal 0 1 0
    outer loop
      vertex -30 7.5 -9
      vertex -22.5 7.5 5
      vertex 30 7.5 -9
    endloop
  endfacet
  facet normal 0 -1 0
    outer loop
      vertex -30 -7.5 9
      vertex -22.5 -7.5 5
      vertex -22.5 -7.5 9
    endloop
  endfacet
  facet normal 0 -1 -0
    outer loop
      vertex -22.5 -7.5 5
      vertex -30 -7.5 -9
      vertex 22.5 -7.5 5
    endloop
  endfacet
  facet normal 0 -1 0
    outer loop
      vertex -30 -7.5 -9
      vertex -22.5 -7.5 5
      vertex -30 -7.5 9
    endloop
  endfacet
  facet normal 0 -1 0
    outer loop
      vertex 22.5 -7.5 5
      vertex 30 -7.5 9
      vertex 22.5 -7.5 9
    endloop
  endfacet
  facet normal 0 -1 0
    outer loop
      vertex 22.5 -7.5 5
      vertex 30 -7.5 -9
      vertex 30 -7.5 9
    endloop
  endfacet
  facet normal 0 -1 0
    outer loop
      vertex 30 -7.5 -9
      vertex 22.5 -7.5 5
      vertex -30 -7.5 -9
    endloop
  endfacet
  facet normal -1 0 0
    outer loop
      vertex 25.5 -0.75 3
      vertex 25.5 0.75 9
      vertex 25.5 0.75 3
    endloop
  endfacet
  facet normal -1 -0 0
    outer loop
      vertex 25.5 0.75 9
      vertex 25.5 -0.75 3
      vertex 25.5 -0.75 9
    endloop
  endfacet
  facet normal -0 0 1
    outer loop
      vertex -25.5 0.75 3
      vertex 25.5 -0.75 3
      vertex 25.5 0.75 3
    endloop
  endfacet
  facet normal 0 0 1
    outer loop
      vertex 25.5 -0.75 3
      vertex -25.5 0.75 3
      vertex -25.5 -0.75 3
    endloop
  endfacet
  facet normal 1 -0 0
    outer loop
      vertex -25.5 -0.75 9
      vertex -25.5 0.75 3
      vertex -25.5 0.75 9
    endloop
  endfacet
  facet normal 1 0 0
    outer loop
      vertex -25.5 0.75 3
      vertex -25.5 -0.75 9
      vertex -25.5 -0.75 3
    endloop
  endfacet
  facet normal 0 -1 0
    outer loop
      vertex -25.5 0.75 9
      vertex -22.5 0.75 5
      vertex -22.5 0.75 9
    endloop
  endfacet
  facet normal 0 -1 -0
    outer loop
      vertex -22.5 0.75 5
      vertex -25.5 0.75 3
      vertex 22.5 0.75 5
    endloop
  endfacet
  facet normal 0 -1 0
    outer loop
      vertex -25.5 0.75 3
      vertex -22.5 0.75 5
      vertex -25.5 0.75 9
    endloop
  endfacet
  facet normal 0 -1 0
    outer loop
      vertex 22.5 0.75 5
      vertex 25.5 0.75 9
      vertex 22.5 0.75 9
    endloop
  endfacet
  facet normal 0 -1 0
    outer loop
      vertex 22.5 0.75 5
      vertex 25.5 0.75 3
      vertex 25.5 0.75 9
    endloop
  endfacet
  facet normal 0 -1 0
    outer loop
      vertex 25.5 0.75 3
      vertex 22.5 0.75 5
      vertex -25.5 0.75 3
    endloop
  endfacet
  facet normal 0 1 0
    outer loop
      vertex 25.5 -0.75 9
      vertex 22.5 -0.75 5
      vertex 22.5 -0.75 9
    endloop
  endfacet
  facet normal 0 1 0
    outer loop
      vertex 22.5 -0.75 5
      vertex 25.5 -0.75 3
      vertex -22.5 -0.75 5
    endloop
  endfacet
  facet normal 0 1 -0
    outer loop
      vertex 25.5 -0.75 3
      vertex 22.5 -0.75 5
      vertex 25.5 -0.75 9
    endloop
  endfacet
  facet normal 0 1 -0
    outer loop
      vertex -22.5 -0.75 5
      vertex -25.5 -0.75 9
      vertex -22.5 -0.75 9
    endloop
  endfacet
  facet normal 0 1 0
    outer loop
      vertex -22.5 -0.75 5
      vertex -25.5 -0.75 3
      vertex -25.5 -0.75 9
    endloop
  endfacet
  facet normal 0 1 0
    outer loop
      vertex -25.5 -0.75 3
      vertex -22.5 -0.75 5
      vertex 25.5 -0.75 3
    endloop
  endfacet
  facet normal -1 0 0
    outer loop
      vertex 22.5 0.75 5
      vertex 22.5 7.5 9
      vertex 22.5 7.5 5
    endloop
  endfacet
  facet normal -1 -0 0
    outer loop
      vertex 22.5 7.5 9
      vertex 22.5 0.75 5
      vertex 22.5 0.75 9
    endloop
  endfacet
  facet normal -1 0 0
    outer loop
      vertex 22.5 -7.5 5
      vertex 22.5 -0.75 9
      vertex 22.5 -0.75 5
    endloop
  endfacet
  facet normal -1 -0 0
    outer loop
      vertex 22.5 -0.75 9
      vertex 22.5 -7.5 5
      vertex 22.5 -7.5 9
    endloop
  endfacet
  facet normal -0 0 1
    outer loop
      vertex -22.5 7.5 5
      vertex 22.5 0.75 5
      vertex 22.5 7.5 5
    endloop
  endfacet
  facet normal 0 0 1
    outer loop
      vertex 22.5 0.75 5
      vertex -22.5 7.5 5
      vertex -22.5 0.75 5
    endloop
  endfacet
  facet normal -0 0 1
    outer loop
      vertex -22.5 -0.75 5
      vertex 22.5 -7.5 5
      vertex 22.5 -0.75 5
    endloop
  endfacet
  facet normal 0 0 1
    outer loop
      vertex 22.5 -7.5 5
      vertex -22.5 -0.75 5
      vertex -22.5 -7.5 5
    endloop
  endfacet
  facet normal 1 -0 0
    outer loop
      vertex -22.5 -7.5 9
      vertex -22.5 -0.75 5
      vertex -22.5 -0.75 9
    endloop
  endfacet
  facet normal 1 0 0
    outer loop
      vertex -22.5 -0.75 5
      vertex -22.5 -7.5 9
      vertex -22.5 -7.5 5
    endloop
  endfacet
  facet normal 1 -0 0
    outer loop
      vertex -22.5 0.75 9
      vertex -22.5 7.5 5
      vertex -22.5 7.5 9
    endloop
  endfacet
  facet normal 1 0 0
    outer loop
      vertex -22.5 7.5 5
      vertex -22.5 0.75 9
      vertex -22.5 0.75 5
    endloop
  endfacet
endsolid OpenSCAD_Model
