solid OpenSCAD_Model
  facet normal 1 -0 0
    outer loop
      vertex 12.5 -2 45
      vertex 12.5 2 -45
      vertex 12.5 2 45
    endloop
  endfacet
  facet normal 1 0 0
    outer loop
      vertex 12.5 2 -45
      vertex 12.5 -2 45
      vertex 12.5 -2 -45
    endloop
  endfacet
  facet normal -0 0 1
    outer loop
      vertex -12.5 2 45
      vertex -8 -2 45
      vertex -8 2 45
    endloop
  endfacet
  facet normal 0 0 1
    outer loop
      vertex -8 -2 45
      vertex -12.5 2 45
      vertex -12.5 -2 45
    endloop
  endfacet
  facet normal -0 0 1
    outer loop
      vertex 8 2 45
      vertex 12.5 -2 45
      vertex 12.5 2 45
    endloop
  endfacet
  facet normal 0 0 1
    outer loop
      vertex 12.5 -2 45
      vertex 8 2 45
      vertex 8 -2 45
    endloop
  endfacet
  facet normal 0 0 -1
    outer loop
      vertex 8 -2 -45
      vertex 12.5 2 -45
      vertex 12.5 -2 -45
    endloop
  endfacet
  facet normal -0 0 -1
    outer loop
      vertex 12.5 2 -45
      vertex 8 -2 -45
      vertex 8 2 -45
    endloop
  endfacet
  facet normal 0 0 -1
    outer loop
      vertex -12.5 -2 -45
      vertex -8 2 -45
      vertex -8 -2 -45
    endloop
  endfacet
  facet normal -0 0 -1
    outer loop
      vertex -8 2 -45
      vertex -12.5 -2 -45
      vertex -12.5 2 -45
    endloop
  endfacet
  facet normal -1 0 0
    outer loop
      vertex -12.5 -2 -45
      vertex -12.5 2 45
      vertex -12.5 2 -45
    endloop
  endfacet
  facet normal -1 -0 0
    outer loop
      vertex -12.5 2 45
      vertex -12.5 -2 -45
      vertex -12.5 -2 45
    endloop
  endfacet
  facet normal 0 1 0
    outer loop
      vertex 12.5 2 45
      vertex 8 2 30
      vertex 8 2 45
    endloop
  endfacet
  facet normal 0 1 0
    outer loop
      vertex 8 2 30
      vertex 8 2 -29
      vertex -8 2 30
    endloop
  endfacet
  facet normal 0 1 0
    outer loop
      vertex 12.5 2 45
      vertex 8 2 -29
      vertex 8 2 30
    endloop
  endfacet
  facet normal 0 1 -0
    outer loop
      vertex 12.5 2 -45
      vertex 8 2 -29
      vertex 12.5 2 45
    endloop
  endfacet
  facet normal 0 1 0
    outer loop
      vertex 8 2 -29
      vertex 12.5 2 -45
      vertex 8 2 -45
    endloop
  endfacet
  facet normal 0 1 -0
    outer loop
      vertex -8 2 30
      vertex -12.5 2 45
      vertex -8 2 45
    endloop
  endfacet
  facet normal 0 1 0
    outer loop
      vertex -8 2 -29
      vertex -8 2 30
      vertex 8 2 -29
    endloop
  endfacet
  facet normal 0 1 0
    outer loop
      vertex -8 2 30
      vertex -8 2 -29
      vertex -12.5 2 45
    endloop
  endfacet
  facet normal 0 1 0
    outer loop
      vertex -12.5 2 -45
      vertex -8 2 -29
      vertex -8 2 -45
    endloop
  endfacet
  facet normal 0 1 0
    outer loop
      vertex -8 2 -29
      vertex -12.5 2 -45
      vertex -12.5 2 45
    endloop
  endfacet
  facet normal 0 -1 0
    outer loop
      vertex -12.5 -2 45
      vertex -8 -2 30
      vertex -8 -2 45
    endloop
  endfacet
  facet normal 0 -1 0
    outer loop
      vertex -8 -2 30
      vertex -8 -2 -29
      vertex 8 -2 30
    endloop
  endfacet
  facet normal 0 -1 0
    outer loop
      vertex -12.5 -2 45
      vertex -8 -2 -29
      vertex -8 -2 30
    endloop
  endfacet
  facet normal 0 -1 0
    outer loop
      vertex -12.5 -2 -45
      vertex -8 -2 -29
      vertex -12.5 -2 45
    endloop
  endfacet
  facet normal 0 -1 -0
    outer loop
      vertex -8 -2 -29
      vertex -12.5 -2 -45
      vertex -8 -2 -45
    endloop
  endfacet
  facet normal 0 -1 0
    outer loop
      vertex 8 -2 30
      vertex 12.5 -2 45
      vertex 8 -2 45
    endloop
  endfacet
  facet normal 0 -1 0
    outer loop
      vertex 8 -2 -29
      vertex 8 -2 30
      vertex -8 -2 -29
    endloop
  endfacet
  facet normal 0 -1 0
    outer loop
      vertex 8 -2 30
      vertex 8 -2 -29
      vertex 12.5 -2 45
    endloop
  endfacet
  facet normal 0 -1 0
    outer loop
      vertex 12.5 -2 -45
      vertex 8 -2 -29
      vertex 8 -2 -45
    endloop
  endfacet
  facet normal 0 -1 0
    outer loop
      vertex 8 -2 -29
      vertex 12.5 -2 -45
      vertex 12.5 -2 45
    endloop
  endfacet
  facet normal -1 0 0
    outer loop
      vertex 8 -2 -45
      vertex 8 2 -29
      vertex 8 2 -45
    endloop
  endfacet
  facet normal -1 -0 0
    outer loop
      vertex 8 2 -29
      vertex 8 -2 -45
      vertex 8 -2 -29
    endloop
  endfacet
  facet normal 0 0 -1
    outer loop
      vertex -8 -2 -29
      vertex 8 2 -29
      vertex 8 -2 -29
    endloop
  endfacet
  facet normal -0 0 -1
    outer loop
      vertex 8 2 -29
      vertex -8 -2 -29
      vertex -8 2 -29
    endloop
  endfacet
  facet normal 1 -0 0
    outer loop
      vertex -8 -2 -29
      vertex -8 2 -45
      vertex -8 2 -29
    endloop
  endfacet
  facet normal 1 0 0
    outer loop
      vertex -8 2 -45
      vertex -8 -2 -29
      vertex -8 -2 -45
    endloop
  endfacet
  facet normal -1 0 0
    outer loop
      vertex 8 -2 30
      vertex 8 2 45
      vertex 8 2 30
    endloop
  endfacet
  facet normal -1 -0 0
    outer loop
      vertex 8 2 45
      vertex 8 -2 30
      vertex 8 -2 45
    endloop
  endfacet
  facet normal -0 0 1
    outer loop
      vertex -8 2 30
      vertex 8 -2 30
      vertex 8 2 30
    endloop
  endfacet
  facet normal 0 0 1
    outer loop
      vertex 8 -2 30
      vertex -8 2 30
      vertex -8 -2 30
    endloop
  endfacet
  facet normal 1 -0 0
    outer loop
      vertex -8 -2 45
      vertex -8 2 30
      vertex -8 2 45
    endloop
  endfacet
  facet normal 1 0 0
    outer loop
      vertex -8 2 30
      vertex -8 -2 45
      vertex -8 -2 30
    endloop
  endfacet
endsolid OpenSCAD_Model
